<?xml version="1.0" encoding="utf-8"?>
<!-- Generator: Adobe Illustrator 25.2.0, SVG Export Plug-In . SVG Version: 6.00 Build 0)  -->
<svg version="1.1" id="Layer_1" xmlns="http://www.w3.org/2000/svg" xmlns:xlink="http://www.w3.org/1999/xlink" x="0px" y="0px"
	 viewBox="0 0 960 348" style="enable-background:new 0 0 960 348;" xml:space="preserve">
<style type="text/css">
	.st0{fill:#FFFFFF;}
	.st1{fill:#8BBD3F;}
</style>
<polygon class="st0" points="467.9,187.8 503.5,187.8 503.5,64.5 504.2,64.5 557.6,187.8 608.4,187.8 608.4,7.9 571.5,7.9 
	571.5,130 571.5,130 519.4,7.9 467.9,7.9 "/>
<path class="st0" d="M627.5,187.8L685.4,7.9h50.2l59.1,179.9h-44.5l-11.4-38.1h-57.2l-12.1,38.1L627.5,187.8L627.5,187.8z
	 M710.8,44.8L710.8,44.8l-20.3,70.6h38.1L710.8,44.8z"/>
<polygon class="st0" points="812.5,187.8 853.8,187.8 853.8,105.8 853.8,105.8 901.5,187.8 953.6,187.8 892.6,91.2 949.2,7.9 
	900.2,7.9 853.8,81 853.8,81 853.8,7.9 812.5,7.9 "/>
<path class="st0" d="M8.3,7.9h49C103.7,7.9,126,26.3,126,67c0,36.2-22.9,57.9-61,57.9H49.6v62.9H8.3V7.9z M49.6,90.6h10.2
	c14,0,25.4-5.7,25.4-24.8c0-18.4-11.4-24.2-25.4-24.2H49.6V90.6z"/>
<path class="st0" d="M359.8,3.5c-22.3,0-43.9,10.8-58.5,28.6l18.4,42.6c6.4-16.5,21-28.6,37.5-28.6c22.3,0,40.7,21.6,40.7,45.8
	c0,29.9-18.4,51.5-40.7,51.5c-2.5,0-5.7-0.6-8.3-1.3l20.3,46.4c42-5.1,71.2-43.2,71.2-95.4C439.9,40.4,401.2,3.5,359.8,3.5"/>
<path class="st1" d="M333.8,145.3c21,0,38.1-17.2,38.1-38.1S354.8,69,333.8,69s-38.1,17.2-38.1,38.1S312.8,145.3,333.8,145.3"/>
<polygon class="st0" points="148.8,187.8 190.1,187.8 190.1,110.3 238.4,110.3 238.4,187.8 279.1,187.8 279.1,7.9 238.4,7.9 
	238.4,76.6 190.1,76.6 190.1,7.9 148.8,7.9 "/>
<path class="st0" d="M399.3,243.8c0-12.1-3.2-15.3-12.7-15.3v-3.2l29.9-4.5v118.9h-17.2L399.3,243.8L399.3,243.8z"/>
<path class="st0" d="M444.4,282.6c0-12.1-2.5-14.6-13.4-15.3v-3.2l29.9-5.7v80.7h-17.2v-56.6h0.7V282.6z M443.1,234.3
	c0-5.7,4.5-10.8,10.8-10.8c5.7,0,10.8,4.5,10.8,10.8c0,5.7-5.1,10.8-10.8,10.8C447.6,245.1,443.1,240.6,443.1,234.3"/>
<path class="st0" d="M492.1,267.3h-14v-7h14v-11.4c0-13.4,5.7-28.6,26.1-28.6c21.6,0,29.2,7.6,31.2,20.3h-19.1c0-6.4-2.5-14-10.8-14
	c-10.2,0-10.8,10.8-10.8,19.1V261h22.9v6.4h-22.9v72.5h-17.2v-72.5h0.6V267.3z"/>
<path class="st0" d="M604.6,336.6c-3.2,1.3-12.1,4.5-24.2,4.5c-26.1,0-42-15.9-42-43.9c0-26.7,12.7-38.8,35.6-38.8
	c29.2,0,31.2,21,31.2,32.4h-48.3c0,17.2,7,41.3,31.2,41.3c7,0,13.4-1.9,15.9-3.2v7.6h0.6V336.6z M589.4,283.8
	c0-3.8-0.6-19.7-15.3-19.7c-12.7,0-16.5,13.4-16.5,19.7H589.4z"/>
<path class="st0" d="M655.5,282.6c0-12.1-2.5-14.6-13.4-15.3v-3.2l29.9-5.7v80.7h-17.2v-56.6h0.7V282.6z M653.6,234.3
	c0-5.7,4.5-10.8,10.8-10.8c5.7,0,10.8,4.5,10.8,10.8c0,5.7-5.1,10.8-10.8,10.8C658,245.1,653.6,240.6,653.6,234.3"/>
<path class="st0" d="M741.3,274.3c-2.5-1.9-10.8-8.3-20.3-8.3c-5.7,0-12.1,1.9-12.1,9.5c0,15.9,37.5,16.5,37.5,42.6
	c0,16.5-14,23.5-30.5,23.5c-10.2,0-17.8-1.9-21.6-3.2V325c5.1,3.2,12.7,8.9,22.3,8.9c10.8,0,14.6-5.7,14.6-11.4
	c0-16.5-37.5-17.8-37.5-41.3c0-12.1,8.3-22.9,28.6-22.9c8.9,0,15.9,1.9,19.1,3.2L741.3,274.3L741.3,274.3z"/>
<path class="st0" d="M789,299.7c0-28.6,12.1-41.3,36.9-41.3c24.8,0,36.9,17.2,36.9,41.3c0,28-11.4,41.3-36.9,41.3
	C798.5,341.1,789,323.9,789,299.7 M825.9,335.3c16.5,0,17.8-18.4,17.8-35.6c0-15.9-1.3-35.6-17.8-35.6s-17.8,21-17.8,35.6
	C808.1,314.4,809.3,335.3,825.9,335.3"/>
<path class="st0" d="M883.7,282.6c0-12.1-3.2-14.6-13.4-15.3v-3.2l30.5-5.7V280h0.6c2.5-5.7,11.4-21.6,28.6-21.6
	c15.3,0,20.3,10.8,20.3,24.2v57.2h-17.2v-43.9c0-13.4,0-25.4-11.4-25.4s-21,15.9-21,28v41.3h-17.2v-57.2H883.7z"/>
</svg>
